# xmcd
#
# Track frame offsets: 
#        150
#        8443
#        23057
#        41131
#        65680
#        87853
#        106675
#        124920
#        141465
#        164048
#        183697
#        195915
#
# Disc length: 2922 seconds
#
# Revision: 1
# Processed by: cddbd v1.5.2PL0 Copyright (c) Steve Scherf et al.
# Submitted via: ExactAudioCopyFreeDBPlugin 1.0
#
DISCID=a10b680c
DTITLE=Lionel Richie - Encore
DYEAR=2004
DGENRE=Soul
TTITLE0=Hello
TTITLE1=Running With The Night
TTITLE2=Penny Lover
TTITLE3=Easy
TTITLE4=Dancing On The Ceiling
TTITLE5=Stuck On You
TTITLE6=Brick House
TTITLE7=Three Times A Lady
TTITLE8=All Night Long (All Night)
TTITLE9=Say You, Say Me
TTITLE10=Angel
TTITLE11=Still
EXTD=
EXTT0=
EXTT1=
EXTT2=
EXTT3=
EXTT4=
EXTT5=
EXTT6=
EXTT7=
EXTT8=
EXTT9=
EXTT10=
EXTT11=
PLAYORDER=
